<svg xmlns="http://www.w3.org/2000/svg" viewBox="0 0 917 1716">
  <defs>
    <linearGradient id="wand" x1="0" y1="0" x2="1" y2="1"><stop stop-color="#FFF3C8"/><stop offset="1" stop-color="#E7AD36"/></linearGradient>
    <filter id="glow"><feDropShadow dx="0" dy="4" stdDeviation="8" flood-color="#E7AD36" flood-opacity=".72"/></filter>
  </defs>
  <g transform="translate(686 822) rotate(16 70 260) scale(.86)" filter="url(#glow)" stroke="#61451B" stroke-width="9" stroke-linejoin="round">
    <rect x="54" y="142" width="33" height="370" rx="16" fill="url(#wand)"/>
    <path fill="#E7AD36" d="M70 0l31 64 71 10-51 50 12 70-63-33-63 33 12-70-51-50 71-10z"/>
    <path fill="#FFF8EC" stroke="#7161B8" stroke-width="7" d="M70 43l13 27 30 4-22 21 5 30-26-14-27 14 5-30-22-21 30-4z"/>
    <path d="M44 500h53l-12 61H56z" fill="#7161B8"/>
  </g>
</svg>
